 http://www1.picturepush.com/photo/a/8984714/img/Ek-Tha-Tiger/Cover.jpg

General
Format                                   : Matroska
File size                                : 1.57 GiB
Duration                                 : 1h 43mn
Overall bit rate                         : 2 162 Kbps
Movie name                               : Ek Tha Tiger (Audio Cleaned)- SCam Rip - 720p x264

Video
ID                                       : 1
Format                                   : MPEG Video
Codec ID                                 : V_MPEG2
Duration                                 : 1h 43mn
Bit rate                                 : 1 959 Kbps
Maximum bit rate                         : 2 000 Kbps
Width                                    : 720 pixels
Height                                   : 576 pixels
Frame rate                               : 25.000 fps
Bit depth                                : 8 bits
Stream size                              : 1.42 GiB (91%)
Title                                    : Ek Tha Tiger (Audio Cleaned)- SCam Rip - 720p x264
Language                                 : Hindi

Audio
ID                                       : 2
Format                                   : MPEG Audio
Codec ID                                 : A_MPEG/L2
Duration                                 : 1h 43mn
Bit rate                                 : 160 Kbps
Channel(s)                               : 2 channels
Sampling rate                            : 48.0 KHz
Stream size                              : 119 MiB (7%)

Screenshots 
http://www4.picturepush.com/photo/a/8984797/img/Ek-Tha-Tiger/1.png 
http://www5.picturepush.com/photo/a/8984798/img/Ek-Tha-Tiger/2.png 
http://www1.picturepush.com/photo/a/8984799/img/Ek-Tha-Tiger/3.png 
http://www3.picturepush.com/photo/a/8984801/img/Ek-Tha-Tiger/4.png 
http://www5.picturepush.com/photo/a/8984803/img/Ek-Tha-Tiger/5.png 
http://www1.picturepush.com/photo/a/8984804/img/Ek-Tha-Tiger/6.png